<svg width="247" height="277" viewBox="0 0 247 277" fill="none" xmlns="http://www.w3.org/2000/svg">
<g opacity="0.5">
<g filter="url(#filter0_d_1818_26782)">
<rect x="10" y="71.54" width="259.031" height="323.46" rx="42" fill="url(#paint0_linear_1818_26782)"/>
<rect x="10.5" y="72.04" width="258.031" height="322.46" rx="41.5" stroke="url(#paint1_linear_1818_26782)"/>
</g>
<g filter="url(#filter1_dddii_1818_26782)">
<g clip-path="url(#clip0_1818_26782)">
<rect x="77.0588" y="15" width="126.228" height="126.228" rx="63.1142" fill="white"/>
<g filter="url(#filter2_dd_1818_26782)">
<circle cx="140" cy="67.3684" r="22.3684" fill="url(#paint2_linear_1818_26782)"/>
<circle cx="140" cy="67.3684" r="21.8684" stroke="url(#paint3_linear_1818_26782)"/>
</g>
<g filter="url(#filter3_d_1818_26782)">
<path d="M170 142.368C181.046 142.368 190.303 132.829 184.615 123.361C182.247 119.418 179.135 115.778 175.355 112.596C165.979 104.699 153.261 100.263 140 100.263C126.739 100.263 114.021 104.699 104.645 112.596C100.865 115.778 97.7532 119.418 95.3847 123.361C89.6966 132.829 98.9543 142.368 110 142.368L140 142.368H170Z" fill="url(#paint4_linear_1818_26782)"/>
<path d="M140 100.763C153.153 100.763 165.754 105.164 175.033 112.978C178.772 116.127 181.848 119.725 184.187 123.619C186.908 128.15 186.063 132.67 183.199 136.094C180.318 139.54 175.387 141.869 170 141.869H110C104.613 141.869 99.6821 139.54 96.8008 136.094C93.9375 132.67 93.0917 128.15 95.8135 123.619C98.1523 119.725 101.228 116.127 104.967 112.978C114.246 105.164 126.847 100.763 140 100.763Z" stroke="url(#paint5_linear_1818_26782)" stroke-opacity="0.5"/>
</g>
</g>
</g>
<g filter="url(#filter4_d_1818_26782)">
<rect x="57.3357" y="241.159" width="120.049" height="3.42997" rx="1.71498" fill="url(#paint6_linear_1818_26782)"/>
</g>
<g filter="url(#filter5_d_1818_26782)">
<rect x="57.3357" y="261.739" width="164.639" height="3.42997" rx="1.71498" fill="url(#paint7_linear_1818_26782)"/>
</g>
<g filter="url(#filter6_ddii_1818_26782)">
<g clip-path="url(#clip1_1818_26782)">
<rect x="120" y="166" width="39.4464" height="39.4464" rx="6" fill="white"/>
<path d="M132.719 186.55C132.316 186.55 131.97 186.405 131.682 186.117C131.393 185.828 131.249 185.482 131.249 185.079C131.249 184.677 131.393 184.331 131.682 184.042C131.97 183.754 132.316 183.609 132.719 183.609C133.122 183.609 133.468 183.754 133.756 184.042C134.045 184.331 134.189 184.677 134.189 185.079C134.189 185.346 134.121 185.591 133.985 185.815C133.854 186.038 133.677 186.217 133.454 186.354C133.236 186.484 132.991 186.55 132.719 186.55ZM139.053 186.55C138.65 186.55 138.304 186.405 138.016 186.117C137.727 185.828 137.583 185.482 137.583 185.079C137.583 184.677 137.727 184.331 138.016 184.042C138.304 183.754 138.65 183.609 139.053 183.609C139.456 183.609 139.802 183.754 140.09 184.042C140.379 184.331 140.523 184.677 140.523 185.079C140.523 185.346 140.455 185.591 140.319 185.815C140.188 186.038 140.011 186.217 139.788 186.354C139.57 186.484 139.325 186.55 139.053 186.55ZM145.387 186.55C144.984 186.55 144.638 186.405 144.35 186.117C144.061 185.828 143.917 185.482 143.917 185.079C143.917 184.677 144.061 184.331 144.35 184.042C144.638 183.754 144.984 183.609 145.387 183.609C145.79 183.609 146.136 183.754 146.424 184.042C146.713 184.331 146.857 184.677 146.857 185.079C146.857 185.346 146.789 185.591 146.653 185.815C146.522 186.038 146.345 186.217 146.122 186.354C145.904 186.484 145.659 186.55 145.387 186.55Z" fill="#D1DBEB"/>
</g>
</g>
</g>
<defs>
<filter id="filter0_d_1818_26782" x="0" y="61.54" width="299.031" height="363.46" filterUnits="userSpaceOnUse" color-interpolation-filters="sRGB">
<feFlood flood-opacity="0" result="BackgroundImageFix"/>
<feColorMatrix in="SourceAlpha" type="matrix" values="0 0 0 0 0 0 0 0 0 0 0 0 0 0 0 0 0 0 127 0" result="hardAlpha"/>
<feOffset dx="10" dy="10"/>
<feGaussianBlur stdDeviation="10"/>
<feComposite in2="hardAlpha" operator="out"/>
<feColorMatrix type="matrix" values="0 0 0 0 0.462745 0 0 0 0 0.556863 0 0 0 0 0.690196 0 0 0 0.25 0"/>
<feBlend mode="normal" in2="BackgroundImageFix" result="effect1_dropShadow_1818_26782"/>
<feBlend mode="normal" in="SourceGraphic" in2="effect1_dropShadow_1818_26782" result="shape"/>
</filter>
<filter id="filter1_dddii_1818_26782" x="62.0588" y="0" width="169.228" height="169.229" filterUnits="userSpaceOnUse" color-interpolation-filters="sRGB">
<feFlood flood-opacity="0" result="BackgroundImageFix"/>
<feColorMatrix in="SourceAlpha" type="matrix" values="0 0 0 0 0 0 0 0 0 0 0 0 0 0 0 0 0 0 127 0" result="hardAlpha"/>
<feOffset dx="8" dy="8"/>
<feGaussianBlur stdDeviation="10"/>
<feComposite in2="hardAlpha" operator="out"/>
<feColorMatrix type="matrix" values="0 0 0 0 0.313726 0 0 0 0 0.345098 0 0 0 0 0.443137 0 0 0 0.08 0"/>
<feBlend mode="normal" in2="BackgroundImageFix" result="effect1_dropShadow_1818_26782"/>
<feColorMatrix in="SourceAlpha" type="matrix" values="0 0 0 0 0 0 0 0 0 0 0 0 0 0 0 0 0 0 127 0" result="hardAlpha"/>
<feOffset dx="2" dy="2"/>
<feGaussianBlur stdDeviation="3"/>
<feComposite in2="hardAlpha" operator="out"/>
<feColorMatrix type="matrix" values="0 0 0 0 0.314687 0 0 0 0 0.345997 0 0 0 0 0.441667 0 0 0 0.15 0"/>
<feBlend mode="normal" in2="effect1_dropShadow_1818_26782" result="effect2_dropShadow_1818_26782"/>
<feColorMatrix in="SourceAlpha" type="matrix" values="0 0 0 0 0 0 0 0 0 0 0 0 0 0 0 0 0 0 127 0" result="hardAlpha"/>
<feOffset dx="-5" dy="-5"/>
<feGaussianBlur stdDeviation="5"/>
<feComposite in2="hardAlpha" operator="out"/>
<feColorMatrix type="matrix" values="0 0 0 0 1 0 0 0 0 1 0 0 0 0 1 0 0 0 0.25 0"/>
<feBlend mode="normal" in2="effect2_dropShadow_1818_26782" result="effect3_dropShadow_1818_26782"/>
<feBlend mode="normal" in="SourceGraphic" in2="effect3_dropShadow_1818_26782" result="shape"/>
<feColorMatrix in="SourceAlpha" type="matrix" values="0 0 0 0 0 0 0 0 0 0 0 0 0 0 0 0 0 0 127 0" result="hardAlpha"/>
<feOffset dx="-8" dy="-8"/>
<feGaussianBlur stdDeviation="15"/>
<feComposite in2="hardAlpha" operator="arithmetic" k2="-1" k3="1"/>
<feColorMatrix type="matrix" values="0 0 0 0 0.475521 0 0 0 0 0.528817 0 0 0 0 0.691667 0 0 0 0.15 0"/>
<feBlend mode="normal" in2="shape" result="effect4_innerShadow_1818_26782"/>
<feColorMatrix in="SourceAlpha" type="matrix" values="0 0 0 0 0 0 0 0 0 0 0 0 0 0 0 0 0 0 127 0" result="hardAlpha"/>
<feOffset dx="6" dy="6"/>
<feGaussianBlur stdDeviation="6"/>
<feComposite in2="hardAlpha" operator="arithmetic" k2="-1" k3="1"/>
<feColorMatrix type="matrix" values="0 0 0 0 0.47451 0 0 0 0 0.529412 0 0 0 0 0.690196 0 0 0 0.08 0"/>
<feBlend mode="normal" in2="effect4_innerShadow_1818_26782" result="effect5_innerShadow_1818_26782"/>
</filter>
<filter id="filter2_dd_1818_26782" x="97.6316" y="15" width="84.7368" height="104.737" filterUnits="userSpaceOnUse" color-interpolation-filters="sRGB">
<feFlood flood-opacity="0" result="BackgroundImageFix"/>
<feColorMatrix in="SourceAlpha" type="matrix" values="0 0 0 0 0 0 0 0 0 0 0 0 0 0 0 0 0 0 127 0" result="hardAlpha"/>
<feOffset dy="-10"/>
<feGaussianBlur stdDeviation="10"/>
<feComposite in2="hardAlpha" operator="out"/>
<feColorMatrix type="matrix" values="0 0 0 0 1 0 0 0 0 1 0 0 0 0 1 0 0 0 0.25 0"/>
<feBlend mode="normal" in2="BackgroundImageFix" result="effect1_dropShadow_1818_26782"/>
<feColorMatrix in="SourceAlpha" type="matrix" values="0 0 0 0 0 0 0 0 0 0 0 0 0 0 0 0 0 0 127 0" result="hardAlpha"/>
<feOffset dy="10"/>
<feGaussianBlur stdDeviation="10"/>
<feComposite in2="hardAlpha" operator="out"/>
<feColorMatrix type="matrix" values="0 0 0 0 0.462745 0 0 0 0 0.556863 0 0 0 0 0.690196 0 0 0 0.2 0"/>
<feBlend mode="normal" in2="effect1_dropShadow_1818_26782" result="effect2_dropShadow_1818_26782"/>
<feBlend mode="normal" in="SourceGraphic" in2="effect2_dropShadow_1818_26782" result="shape"/>
</filter>
<filter id="filter3_d_1818_26782" x="73.6567" y="100.263" width="132.687" height="82.1055" filterUnits="userSpaceOnUse" color-interpolation-filters="sRGB">
<feFlood flood-opacity="0" result="BackgroundImageFix"/>
<feColorMatrix in="SourceAlpha" type="matrix" values="0 0 0 0 0 0 0 0 0 0 0 0 0 0 0 0 0 0 127 0" result="hardAlpha"/>
<feOffset dy="20"/>
<feGaussianBlur stdDeviation="10"/>
<feComposite in2="hardAlpha" operator="out"/>
<feColorMatrix type="matrix" values="0 0 0 0 0.462745 0 0 0 0 0.556863 0 0 0 0 0.690196 0 0 0 0.2 0"/>
<feBlend mode="normal" in2="BackgroundImageFix" result="effect1_dropShadow_1818_26782"/>
<feBlend mode="normal" in="SourceGraphic" in2="effect1_dropShadow_1818_26782" result="shape"/>
</filter>
<filter id="filter4_d_1818_26782" x="51.3357" y="238.159" width="128.049" height="11.4302" filterUnits="userSpaceOnUse" color-interpolation-filters="sRGB">
<feFlood flood-opacity="0" result="BackgroundImageFix"/>
<feColorMatrix in="SourceAlpha" type="matrix" values="0 0 0 0 0 0 0 0 0 0 0 0 0 0 0 0 0 0 127 0" result="hardAlpha"/>
<feOffset dx="-2" dy="1"/>
<feGaussianBlur stdDeviation="2"/>
<feComposite in2="hardAlpha" operator="out"/>
<feColorMatrix type="matrix" values="0 0 0 0 0.862745 0 0 0 0 0.894118 0 0 0 0 0.937255 0 0 0 1 0"/>
<feBlend mode="normal" in2="BackgroundImageFix" result="effect1_dropShadow_1818_26782"/>
<feBlend mode="normal" in="SourceGraphic" in2="effect1_dropShadow_1818_26782" result="shape"/>
</filter>
<filter id="filter5_d_1818_26782" x="51.3357" y="258.739" width="172.638" height="11.4302" filterUnits="userSpaceOnUse" color-interpolation-filters="sRGB">
<feFlood flood-opacity="0" result="BackgroundImageFix"/>
<feColorMatrix in="SourceAlpha" type="matrix" values="0 0 0 0 0 0 0 0 0 0 0 0 0 0 0 0 0 0 127 0" result="hardAlpha"/>
<feOffset dx="-2" dy="1"/>
<feGaussianBlur stdDeviation="2"/>
<feComposite in2="hardAlpha" operator="out"/>
<feColorMatrix type="matrix" values="0 0 0 0 0.862745 0 0 0 0 0.894118 0 0 0 0 0.937255 0 0 0 1 0"/>
<feBlend mode="normal" in2="BackgroundImageFix" result="effect1_dropShadow_1818_26782"/>
<feBlend mode="normal" in="SourceGraphic" in2="effect1_dropShadow_1818_26782" result="shape"/>
</filter>
<filter id="filter6_ddii_1818_26782" x="108" y="154" width="79.4463" height="79.4463" filterUnits="userSpaceOnUse" color-interpolation-filters="sRGB">
<feFlood flood-opacity="0" result="BackgroundImageFix"/>
<feColorMatrix in="SourceAlpha" type="matrix" values="0 0 0 0 0 0 0 0 0 0 0 0 0 0 0 0 0 0 127 0" result="hardAlpha"/>
<feOffset dx="8" dy="8"/>
<feGaussianBlur stdDeviation="10"/>
<feComposite in2="hardAlpha" operator="out"/>
<feColorMatrix type="matrix" values="0 0 0 0 0.313726 0 0 0 0 0.345098 0 0 0 0 0.443137 0 0 0 0.04 0"/>
<feBlend mode="normal" in2="BackgroundImageFix" result="effect1_dropShadow_1818_26782"/>
<feColorMatrix in="SourceAlpha" type="matrix" values="0 0 0 0 0 0 0 0 0 0 0 0 0 0 0 0 0 0 127 0" result="hardAlpha"/>
<feOffset dx="2" dy="2"/>
<feGaussianBlur stdDeviation="3"/>
<feComposite in2="hardAlpha" operator="out"/>
<feColorMatrix type="matrix" values="0 0 0 0 0.314687 0 0 0 0 0.345997 0 0 0 0 0.441667 0 0 0 0.1 0"/>
<feBlend mode="normal" in2="effect1_dropShadow_1818_26782" result="effect2_dropShadow_1818_26782"/>
<feBlend mode="normal" in="SourceGraphic" in2="effect2_dropShadow_1818_26782" result="shape"/>
<feColorMatrix in="SourceAlpha" type="matrix" values="0 0 0 0 0 0 0 0 0 0 0 0 0 0 0 0 0 0 127 0" result="hardAlpha"/>
<feOffset dx="-8" dy="-8"/>
<feGaussianBlur stdDeviation="15"/>
<feComposite in2="hardAlpha" operator="arithmetic" k2="-1" k3="1"/>
<feColorMatrix type="matrix" values="0 0 0 0 0.475521 0 0 0 0 0.528817 0 0 0 0 0.691667 0 0 0 0.1 0"/>
<feBlend mode="normal" in2="shape" result="effect3_innerShadow_1818_26782"/>
<feColorMatrix in="SourceAlpha" type="matrix" values="0 0 0 0 0 0 0 0 0 0 0 0 0 0 0 0 0 0 127 0" result="hardAlpha"/>
<feOffset dx="6" dy="6"/>
<feGaussianBlur stdDeviation="6"/>
<feComposite in2="hardAlpha" operator="arithmetic" k2="-1" k3="1"/>
<feColorMatrix type="matrix" values="0 0 0 0 0.47451 0 0 0 0 0.529412 0 0 0 0 0.690196 0 0 0 0.04 0"/>
<feBlend mode="normal" in2="effect3_innerShadow_1818_26782" result="effect4_innerShadow_1818_26782"/>
</filter>
<linearGradient id="paint0_linear_1818_26782" x1="139.516" y1="71.54" x2="139.516" y2="395" gradientUnits="userSpaceOnUse">
<stop stop-color="#E3EDF7"/>
<stop offset="1" stop-color="#F7F9FC"/>
</linearGradient>
<linearGradient id="paint1_linear_1818_26782" x1="139.516" y1="71.54" x2="139.516" y2="395" gradientUnits="userSpaceOnUse">
<stop stop-color="#ECF3FC"/>
<stop offset="1" stop-color="white"/>
</linearGradient>
<linearGradient id="paint2_linear_1818_26782" x1="140" y1="45" x2="140" y2="89.7368" gradientUnits="userSpaceOnUse">
<stop stop-color="#E6EDF8"/>
<stop offset="1" stop-color="#D1DBE8"/>
</linearGradient>
<linearGradient id="paint3_linear_1818_26782" x1="140" y1="45" x2="140" y2="89.7368" gradientUnits="userSpaceOnUse">
<stop stop-color="#E5E8ED"/>
<stop offset="0.541667" stop-color="#D9E2EF"/>
</linearGradient>
<linearGradient id="paint4_linear_1818_26782" x1="140" y1="100.263" x2="140" y2="142.368" gradientUnits="userSpaceOnUse">
<stop stop-color="#CFD9E7"/>
<stop offset="1" stop-color="#E8EFFA"/>
</linearGradient>
<linearGradient id="paint5_linear_1818_26782" x1="140" y1="100.263" x2="140" y2="142.368" gradientUnits="userSpaceOnUse">
<stop stop-color="#E2EBF8"/>
<stop offset="1" stop-color="#F1F7FF"/>
</linearGradient>
<linearGradient id="paint6_linear_1818_26782" x1="177.385" y1="242.629" x2="57.3357" y2="242.629" gradientUnits="userSpaceOnUse">
<stop stop-color="#F4F8FE"/>
<stop offset="0.859375" stop-color="#E5ECF6"/>
</linearGradient>
<linearGradient id="paint7_linear_1818_26782" x1="221.974" y1="263.209" x2="57.3357" y2="263.209" gradientUnits="userSpaceOnUse">
<stop stop-color="#F4F8FE"/>
<stop offset="0.859375" stop-color="#E5ECF6"/>
</linearGradient>
<clipPath id="clip0_1818_26782">
<rect x="77.0588" y="15" width="126.228" height="126.228" rx="63.1142" fill="white"/>
</clipPath>
<clipPath id="clip1_1818_26782">
<rect x="120" y="166" width="39.4464" height="39.4464" rx="6" fill="white"/>
</clipPath>
</defs>
</svg>
