<svg width="200" height="259" viewBox="0 0 200 259" fill="none" xmlns="http://www.w3.org/2000/svg">
<g opacity="0.5">
<g filter="url(#filter0_f_1818_26775)">
<path d="M182.191 87.9654V124.494H147.212V87.6053C147.212 70.3199 133.199 56.3073 115.914 56.3073C97.0078 56.3073 81.6815 71.6335 81.6815 90.5394V97.3706C81.6815 97.9229 81.2338 98.3706 80.6815 98.3706H47.2394C46.6984 98.3706 46.2598 97.932 46.2598 97.3909V87.9654C46.2598 50.4292 76.6889 20 114.225 20C151.761 20 182.191 50.4291 182.191 87.9654Z" fill="url(#paint0_linear_1818_26775)"/>
</g>
<path d="M183.024 87.9654V124.494H148.045V87.6053C148.045 70.3199 134.033 56.3073 116.747 56.3073C97.8415 56.3073 82.5152 71.6335 82.5152 90.5395V124.487C82.5152 125.039 82.0675 125.487 81.5152 125.487H48.0935C47.5412 125.487 47.0935 125.039 47.0935 124.487V87.9654C47.0935 50.4292 77.5227 20 115.059 20C152.595 20 183.024 50.4291 183.024 87.9654Z" fill="url(#paint1_linear_1818_26775)" stroke="url(#paint2_linear_1818_26775)"/>
<g filter="url(#filter1_d_1818_26775)">
<rect x="13" y="124.885" width="206.332" height="146.115" rx="39" fill="url(#paint3_linear_1818_26775)"/>
<rect x="13.5" y="125.385" width="205.332" height="145.115" rx="38.5" stroke="url(#paint4_linear_1818_26775)"/>
</g>
<g filter="url(#filter2_d_1818_26775)">
<path d="M107.422 217.169V208.106C107.422 205.842 106.549 203.672 105.068 201.96C102.748 199.28 101.078 197.002 99.9478 194.826C96.729 188.631 97.9806 180.629 102.213 175.077C103.748 173.064 105.7 171.558 108.304 170.378C113.842 167.867 120.533 168.044 125.738 171.186C128.405 172.797 130.242 174.795 131.679 177.442C134.127 181.955 134.992 187.436 133.255 192.268C132.047 195.631 129.913 198.472 126.883 202.038C125.481 203.689 124.69 205.777 124.69 207.944V217.492C124.69 220.649 124.221 223.993 122.066 226.302C121.496 226.913 120.901 227.388 120.252 227.756C117.348 229.403 113.393 229.022 110.832 226.879C110.679 226.751 110.526 226.613 110.373 226.465C107.958 224.125 107.422 220.532 107.422 217.169Z" fill="url(#paint5_linear_1818_26775)" shape-rendering="crispEdges"/>
</g>
<g filter="url(#filter3_f_1818_26775)">
<rect x="148.09" y="121.734" width="34.1893" height="5.83721" fill="url(#paint6_linear_1818_26775)"/>
</g>
</g>
<defs>
<filter id="filter0_f_1818_26775" x="26.2598" y="0" width="175.931" height="144.494" filterUnits="userSpaceOnUse" color-interpolation-filters="sRGB">
<feFlood flood-opacity="0" result="BackgroundImageFix"/>
<feBlend mode="normal" in="SourceGraphic" in2="BackgroundImageFix" result="shape"/>
<feGaussianBlur stdDeviation="10" result="effect1_foregroundBlur_1818_26775"/>
</filter>
<filter id="filter1_d_1818_26775" x="0" y="114.885" width="246.332" height="186.115" filterUnits="userSpaceOnUse" color-interpolation-filters="sRGB">
<feFlood flood-opacity="0" result="BackgroundImageFix"/>
<feColorMatrix in="SourceAlpha" type="matrix" values="0 0 0 0 0 0 0 0 0 0 0 0 0 0 0 0 0 0 127 0" result="hardAlpha"/>
<feOffset dx="7" dy="10"/>
<feGaussianBlur stdDeviation="10"/>
<feComposite in2="hardAlpha" operator="out"/>
<feColorMatrix type="matrix" values="0 0 0 0 0.463993 0 0 0 0 0.555063 0 0 0 0 0.691667 0 0 0 0.25 0"/>
<feBlend mode="normal" in2="BackgroundImageFix" result="effect1_dropShadow_1818_26775"/>
<feBlend mode="normal" in="SourceGraphic" in2="effect1_dropShadow_1818_26775" result="shape"/>
</filter>
<filter id="filter2_d_1818_26775" x="75.1331" y="144.646" width="96.0339" height="120.132" filterUnits="userSpaceOnUse" color-interpolation-filters="sRGB">
<feFlood flood-opacity="0" result="BackgroundImageFix"/>
<feColorMatrix in="SourceAlpha" type="matrix" values="0 0 0 0 0 0 0 0 0 0 0 0 0 0 0 0 0 0 127 0" result="hardAlpha"/>
<feOffset dx="7" dy="6"/>
<feGaussianBlur stdDeviation="15"/>
<feComposite in2="hardAlpha" operator="out"/>
<feColorMatrix type="matrix" values="0 0 0 0 0.321569 0 0 0 0 0.505882 0 0 0 0 0.768627 0 0 0 0.3 0"/>
<feBlend mode="normal" in2="BackgroundImageFix" result="effect1_dropShadow_1818_26775"/>
<feBlend mode="normal" in="SourceGraphic" in2="effect1_dropShadow_1818_26775" result="shape"/>
</filter>
<filter id="filter3_f_1818_26775" x="144.09" y="117.734" width="42.1895" height="13.8374" filterUnits="userSpaceOnUse" color-interpolation-filters="sRGB">
<feFlood flood-opacity="0" result="BackgroundImageFix"/>
<feBlend mode="normal" in="SourceGraphic" in2="BackgroundImageFix" result="shape"/>
<feGaussianBlur stdDeviation="2" result="effect1_foregroundBlur_1818_26775"/>
</filter>
<linearGradient id="paint0_linear_1818_26775" x1="66.369" y1="33.3422" x2="98.4736" y2="62.1113" gradientUnits="userSpaceOnUse">
<stop stop-color="#E6EEFC"/>
<stop offset="0.0001" stop-color="white"/>
<stop offset="1" stop-color="#E9E9E9" stop-opacity="0"/>
</linearGradient>
<linearGradient id="paint1_linear_1818_26775" x1="56.8345" y1="72.247" x2="183.024" y2="112.982" gradientUnits="userSpaceOnUse">
<stop stop-color="#E6EEFC"/>
<stop offset="1" stop-color="#DFE8F4"/>
</linearGradient>
<linearGradient id="paint2_linear_1818_26775" x1="70.9552" y1="34.593" x2="162.683" y2="124.653" gradientUnits="userSpaceOnUse">
<stop offset="0.578125" stop-color="white"/>
<stop offset="1" stop-color="#E0E9F5"/>
</linearGradient>
<linearGradient id="paint3_linear_1818_26775" x1="116.166" y1="124.885" x2="192.765" y2="270.557" gradientUnits="userSpaceOnUse">
<stop stop-color="#E8EFFA"/>
<stop offset="1" stop-color="#CCD6E5"/>
</linearGradient>
<linearGradient id="paint4_linear_1818_26775" x1="116.402" y1="125.07" x2="116.402" y2="271" gradientUnits="userSpaceOnUse">
<stop stop-color="#E8EFFA"/>
<stop offset="1" stop-color="#D7E0ED"/>
</linearGradient>
<linearGradient id="paint5_linear_1818_26775" x1="103.06" y1="170.934" x2="127.243" y2="220.967" gradientUnits="userSpaceOnUse">
<stop stop-color="white"/>
<stop offset="0.381704" stop-color="#F2F2F2"/>
<stop offset="1" stop-color="#DFDFDF" stop-opacity="0.44"/>
</linearGradient>
<linearGradient id="paint6_linear_1818_26775" x1="165.184" y1="121.734" x2="165.184" y2="127.572" gradientUnits="userSpaceOnUse">
<stop stop-color="#E0E9F5"/>
<stop offset="1" stop-color="#E7EEF7"/>
</linearGradient>
</defs>
</svg>