<svg width="267" height="261" viewBox="0 0 267 261" fill="none" xmlns="http://www.w3.org/2000/svg">
<g opacity="0.5">
<g filter="url(#filter0_d_1818_26795)">
<g filter="url(#filter1_dd_1818_26795)">
<path d="M83.3843 213.616V44.2505C83.3843 39.97 86.8543 36.5 91.1348 36.5H161.456C167.859 36.5 173.244 37.9111 175.96 43.71C178.358 48.83 186.296 61.0707 191.949 61.0707H323.194C327.843 61.0707 331.612 64.8396 331.612 69.4887V213.616C331.612 219.139 327.135 223.616 321.612 223.616H93.3843C87.8614 223.616 83.3843 219.139 83.3843 213.616Z" fill="url(#paint0_linear_1818_26795)"/>
<path d="M83.3843 213.616V44.2505C83.3843 39.97 86.8543 36.5 91.1348 36.5H161.456C167.859 36.5 173.244 37.9111 175.96 43.71C178.358 48.83 186.296 61.0707 191.949 61.0707H323.194C327.843 61.0707 331.612 64.8396 331.612 69.4887V213.616C331.612 219.139 327.135 223.616 321.612 223.616H93.3843C87.8614 223.616 83.3843 219.139 83.3843 213.616Z" stroke="url(#paint1_linear_1818_26795)"/>
</g>
</g>
<g filter="url(#filter2_d_1818_26795)">
<g filter="url(#filter3_dd_1818_26795)">
<path d="M20.5 276.5V107.135C20.5 102.854 23.97 99.3843 28.2505 99.3843H98.5718C104.975 99.3843 110.36 100.795 113.076 106.594C115.474 111.714 123.411 123.955 129.065 123.955H260.31C264.959 123.955 268.728 127.724 268.728 132.373V276.5C268.728 282.023 264.25 286.5 258.728 286.5H30.5C24.9772 286.5 20.5 282.023 20.5 276.5Z" fill="url(#paint2_linear_1818_26795)"/>
<path d="M20.5 276.5V107.135C20.5 102.854 23.97 99.3843 28.2505 99.3843H98.5718C104.975 99.3843 110.36 100.795 113.076 106.594C115.474 111.714 123.411 123.955 129.065 123.955H260.31C264.959 123.955 268.728 127.724 268.728 132.373V276.5C268.728 282.023 264.25 286.5 258.728 286.5H30.5C24.9772 286.5 20.5 282.023 20.5 276.5Z" stroke="url(#paint3_linear_1818_26795)"/>
</g>
</g>
</g>
<defs>
<filter id="filter0_d_1818_26795" x="78.8843" y="0" width="289.228" height="228.116" filterUnits="userSpaceOnUse" color-interpolation-filters="sRGB">
<feFlood flood-opacity="0" result="BackgroundImageFix"/>
<feColorMatrix in="SourceAlpha" type="matrix" values="0 0 0 0 0 0 0 0 0 0 0 0 0 0 0 0 0 0 127 0" result="hardAlpha"/>
<feOffset dx="16" dy="-16"/>
<feGaussianBlur stdDeviation="10"/>
<feComposite in2="hardAlpha" operator="out"/>
<feColorMatrix type="matrix" values="0 0 0 0 0.462745 0 0 0 0 0.556863 0 0 0 0 0.690196 0 0 0 0.15 0"/>
<feBlend mode="normal" in2="BackgroundImageFix" result="effect1_dropShadow_1818_26795"/>
<feBlend mode="normal" in="SourceGraphic" in2="effect1_dropShadow_1818_26795" result="shape"/>
</filter>
<filter id="filter1_dd_1818_26795" x="62.8843" y="26" width="299.228" height="228.116" filterUnits="userSpaceOnUse" color-interpolation-filters="sRGB">
<feFlood flood-opacity="0" result="BackgroundImageFix"/>
<feColorMatrix in="SourceAlpha" type="matrix" values="0 0 0 0 0 0 0 0 0 0 0 0 0 0 0 0 0 0 127 0" result="hardAlpha"/>
<feOffset dx="10" dy="10"/>
<feGaussianBlur stdDeviation="10"/>
<feComposite in2="hardAlpha" operator="out"/>
<feColorMatrix type="matrix" values="0 0 0 0 0.462745 0 0 0 0 0.556863 0 0 0 0 0.690196 0 0 0 0.2 0"/>
<feBlend mode="normal" in2="BackgroundImageFix" result="effect1_dropShadow_1818_26795"/>
<feColorMatrix in="SourceAlpha" type="matrix" values="0 0 0 0 0 0 0 0 0 0 0 0 0 0 0 0 0 0 127 0" result="hardAlpha"/>
<feOffset dx="-10"/>
<feGaussianBlur stdDeviation="5"/>
<feComposite in2="hardAlpha" operator="out"/>
<feColorMatrix type="matrix" values="0 0 0 0 1 0 0 0 0 1 0 0 0 0 1 0 0 0 0.25 0"/>
<feBlend mode="normal" in2="effect1_dropShadow_1818_26795" result="effect2_dropShadow_1818_26795"/>
<feBlend mode="normal" in="SourceGraphic" in2="effect2_dropShadow_1818_26795" result="shape"/>
</filter>
<filter id="filter2_d_1818_26795" x="16" y="62.8843" width="289.228" height="228.116" filterUnits="userSpaceOnUse" color-interpolation-filters="sRGB">
<feFlood flood-opacity="0" result="BackgroundImageFix"/>
<feColorMatrix in="SourceAlpha" type="matrix" values="0 0 0 0 0 0 0 0 0 0 0 0 0 0 0 0 0 0 127 0" result="hardAlpha"/>
<feOffset dx="16" dy="-16"/>
<feGaussianBlur stdDeviation="10"/>
<feComposite in2="hardAlpha" operator="out"/>
<feColorMatrix type="matrix" values="0 0 0 0 0.462745 0 0 0 0 0.556863 0 0 0 0 0.690196 0 0 0 0.15 0"/>
<feBlend mode="normal" in2="BackgroundImageFix" result="effect1_dropShadow_1818_26795"/>
<feBlend mode="normal" in="SourceGraphic" in2="effect1_dropShadow_1818_26795" result="shape"/>
</filter>
<filter id="filter3_dd_1818_26795" x="0" y="88.8843" width="299.228" height="228.116" filterUnits="userSpaceOnUse" color-interpolation-filters="sRGB">
<feFlood flood-opacity="0" result="BackgroundImageFix"/>
<feColorMatrix in="SourceAlpha" type="matrix" values="0 0 0 0 0 0 0 0 0 0 0 0 0 0 0 0 0 0 127 0" result="hardAlpha"/>
<feOffset dx="10" dy="10"/>
<feGaussianBlur stdDeviation="10"/>
<feComposite in2="hardAlpha" operator="out"/>
<feColorMatrix type="matrix" values="0 0 0 0 0.462745 0 0 0 0 0.556863 0 0 0 0 0.690196 0 0 0 0.2 0"/>
<feBlend mode="normal" in2="BackgroundImageFix" result="effect1_dropShadow_1818_26795"/>
<feColorMatrix in="SourceAlpha" type="matrix" values="0 0 0 0 0 0 0 0 0 0 0 0 0 0 0 0 0 0 127 0" result="hardAlpha"/>
<feOffset dx="-10"/>
<feGaussianBlur stdDeviation="5"/>
<feComposite in2="hardAlpha" operator="out"/>
<feColorMatrix type="matrix" values="0 0 0 0 1 0 0 0 0 1 0 0 0 0 1 0 0 0 0.25 0"/>
<feBlend mode="normal" in2="effect1_dropShadow_1818_26795" result="effect2_dropShadow_1818_26795"/>
<feBlend mode="normal" in="SourceGraphic" in2="effect2_dropShadow_1818_26795" result="shape"/>
</filter>
<linearGradient id="paint0_linear_1818_26795" x1="207.498" y1="36.5" x2="207.498" y2="223.616" gradientUnits="userSpaceOnUse">
<stop stop-color="#E2EAF5"/>
<stop offset="1" stop-color="#F4F7FB"/>
</linearGradient>
<linearGradient id="paint1_linear_1818_26795" x1="201.198" y1="78.0806" x2="207.498" y2="223.616" gradientUnits="userSpaceOnUse">
<stop stop-color="#E7EFFB"/>
<stop offset="1" stop-color="#F5F9FE"/>
</linearGradient>
<linearGradient id="paint2_linear_1818_26795" x1="144.614" y1="99.3843" x2="144.614" y2="286.5" gradientUnits="userSpaceOnUse">
<stop stop-color="#E2EAF5"/>
<stop offset="1" stop-color="#F4F7FB"/>
</linearGradient>
<linearGradient id="paint3_linear_1818_26795" x1="138.314" y1="140.965" x2="144.614" y2="286.5" gradientUnits="userSpaceOnUse">
<stop stop-color="#E7EFFB"/>
<stop offset="1" stop-color="#F5F9FE"/>
</linearGradient>
</defs>
</svg>
